<?xml version="1.0" encoding="utf-8"?>
<!-- Generator: Adobe Illustrator 16.0.0, SVG Export Plug-In . SVG Version: 6.00 Build 0)  -->
<!DOCTYPE svg PUBLIC "-//W3C//DTD SVG 1.1//EN" "http://www.w3.org/Graphics/SVG/1.1/DTD/svg11.dtd">
<svg version="1.1" id="Layer_1" xmlns="http://www.w3.org/2000/svg" xmlns:xlink="http://www.w3.org/1999/xlink" x="0px" y="0px"
	 width="556.127px" height="446.102px" viewBox="0 0 556.127 446.102" enable-background="new 0 0 556.127 446.102"
	 xml:space="preserve">
<g>
	<path fill-rule="evenodd" clip-rule="evenodd" fill="#FFFFFF" d="M557.127,350.08c0,32.34,0,64.682,0,97.021
		c-185.375,0-370.751,0-556.127,0c0-43.343,0-86.687,0-130.029c1.823-0.096,3.646-0.273,5.469-0.274
		c29.981-0.018,59.963-0.015,89.944-0.011c6.885,0.001,6.891,0.01,6.895,6.887c0.006,8.594,0.001,17.189,0.001,26.119
		c2.836,0,4.978,0,7.119,0c146.577,0,293.153-0.001,439.729,0.013C552.481,349.806,554.804,349.984,557.127,350.08z"/>
	<path fill-rule="evenodd" clip-rule="evenodd" fill="#FFFFFF" d="M1,130.03C1,87.02,1,44.01,1,1c185.376,0,370.752,0,556.127,0
		c0,32.007,0,64.015,0,96.022c-2.323,0.096-4.646,0.274-6.969,0.274c-146.742,0.014-293.485,0.013-440.229,0.013
		c-2.096,0-4.191,0-6.62,0c0,9.507-0.225,18.321,0.092,27.115c0.167,4.636-1.375,6.027-5.989,5.985
		c-22.484-0.205-44.972-0.064-67.458-0.105C20.303,130.286,10.652,130.125,1,130.03z"/>
	<path fill-rule="evenodd" clip-rule="evenodd" fill="#FFFFFF" d="M557.127,176.04c0,32.007,0,64.015,0,96.021
		c-1.99,0.096-3.979,0.274-5.969,0.274c-181.396,0.015-362.792,0.014-544.189,0c-1.99,0-3.979-0.179-5.969-0.274
		c0-32.007,0-64.014,0-96.021c1.872-0.429,3.741-1.22,5.615-1.23c17.33-0.096,34.66-0.057,51.99-0.057
		c163.803,0,327.605-0.005,491.407,0.054C552.384,174.808,554.755,175.611,557.127,176.04z"/>
	<path fill-rule="evenodd" clip-rule="evenodd" fill="none" d="M557.127,176.04c-2.372-0.429-4.743-1.232-7.115-1.233
		c-163.802-0.059-327.604-0.054-491.407-0.054c-17.33,0-34.66-0.039-51.99,0.057c-1.874,0.011-3.744,0.802-5.615,1.23
		c0-15.336,0-30.674,0-46.01c9.652,0.096,19.303,0.256,28.955,0.273c22.486,0.041,44.974-0.1,67.458,0.105
		c4.614,0.042,6.156-1.349,5.989-5.985c-0.316-8.794-0.092-17.607-0.092-27.115c2.429,0,4.524,0,6.62,0
		c146.743,0,293.486,0.001,440.229-0.013c2.323,0,4.646-0.179,6.969-0.274C557.127,123.361,557.127,149.701,557.127,176.04z"/>
	<path fill-rule="evenodd" clip-rule="evenodd" fill="none" d="M1,272.062c1.99,0.096,3.979,0.274,5.969,0.274
		c181.396,0.014,362.792,0.015,544.189,0c1.989,0,3.979-0.179,5.969-0.274c0,26.007,0,52.013,0,78.019
		c-2.323-0.096-4.646-0.274-6.969-0.274c-146.576-0.014-293.152-0.013-439.729-0.013c-2.141,0-4.283,0-7.119,0
		c0-8.93,0.004-17.525-0.001-26.119c-0.004-6.877-0.01-6.886-6.895-6.887c-29.981-0.004-59.963-0.007-89.944,0.011
		c-1.823,0.001-3.646,0.179-5.469,0.274C1,302.068,1,287.065,1,272.062z"/>
</g>
</svg>
